<svg id="UW_Logo_2L_horz_cmyk" xmlns="http://www.w3.org/2000/svg" viewBox="0 0 365.94 135.55"><defs><style>.cls-1{fill:#fff;}.cls-2{fill:#005596;}.cls-3{fill:#ffcf01;}.cls-4{fill:#58595b;}</style></defs><title>uwindsor_logo</title><path class="cls-1" d="M60.78,142.84c-70-27.27-48.17-120.3-48.17-120.3,12.64-6.65,41.29-9,48.17-9s35.53,2.39,48.17,9C108.94,22.54,130.75,115.56,60.78,142.84Z" transform="translate(-6.38 -10.51)"/><path class="cls-2" d="M111.86,21.86l-.31-1.33-1.21-.64c-13.37-7-42.84-9.37-49.56-9.37s-36.2,2.35-49.57,9.38L10,20.52l-.31,1.33a160.5,160.5,0,0,0-2.21,51c2,15.91,6.58,29.81,13.71,41.29,9,14.45,21.93,25.05,38.51,31.51l1.09.43,1.09-.43c16.58-6.46,29.53-17.06,38.5-31.51,7.13-11.48,11.74-25.37,13.7-41.29A160.37,160.37,0,0,0,111.86,21.86Zm-51.09,121c-70-27.27-48.17-120.3-48.17-120.3,12.64-6.65,41.29-9,48.17-9s35.53,2.38,48.17,9C108.94,22.54,130.74,115.57,60.77,142.84Z" transform="translate(-6.38 -10.51)"/><path class="cls-2" d="M16.94,91.09a77.83,77.83,0,0,0,15.43,28.73L26.58,88c-4.25,1.2-7.59,2.36-9.64,3.12Z" transform="translate(-6.38 -10.51)"/><path class="cls-2" d="M46.52,65.8l9.36-48.56a198.91,198.91,0,0,0-28.81,4.13l7.83,46.2c3.93-.75,7.82-1.35,11.57-1.77ZM44,39.57c0,1.21.25,2.23.55,2.36a20.59,20.59,0,0,0-1.71,1.29c-.38.38-2.06,2.41-2.06,2.41s-1.68-2-2.06-2.41A20.07,20.07,0,0,0,37,41.92c.3-.13.55-1.14.55-2.36,0-1.47-.85-2.79-2.1-2.79-1.81,0-2.06,1.24-2.06,1.24s-1.67-1.57-1.67-3.09c0-3.45,1.86-3.21,2.66-3.21,1.85,0,4.37,2.88,4.37,2.88-.28-.63-.76-1.75-.9-2.1-.06-.14-.13-.32-.21-.51a4.51,4.51,0,0,1-.09-3.18c.43-1.33,1.35-1.9,2.1-2.83s1.12-1.31,1.12-1.31.31.32,1.11,1.31,1.67,1.5,2.1,2.83A4.5,4.5,0,0,1,43.93,32c-.07.2-.15.37-.21.51-.14.35-.62,1.47-.9,2.1,0,0,2.52-2.88,4.37-2.88.8,0,2.66-.23,2.66,3.21,0,1.52-1.67,3.09-1.67,3.09s-.24-1.24-2.06-1.24C44.87,36.78,44,38.09,44,39.57Z" transform="translate(-6.38 -10.51)"/><path class="cls-2" d="M24.47,75.67c1.74-.46,3.5-.89,5.21-1.28l.45-.1,2.24-.49.11,0,.57-.12,2.79-.56.13,0h0c3.2-.61,6.36-1.11,9.4-1.49h0l.08-.42.75-3.9c-3.61.42-7.36,1-11.15,1.72s-7.69,1.62-11.46,2.62c-3.55.95-7,2-10.2,3.07h-.06c.12.82.33,2.32.65,4.07,3.24-1.08,6.81-2.14,10.33-3.07Z" transform="translate(-6.38 -10.51)"/><path class="cls-2" d="M37.9,85.31l2.27,13.58,2.75-14.44c-1.61.24-3.25.52-5,.86Z" transform="translate(-6.38 -10.51)"/><path class="cls-2" d="M28,80.68l.12,0L30.72,80l.18,0c.92-.22,1.85-.44,2.75-.64l.17,0c1-.23,2-.43,2.92-.62,2.56-.52,5.08-1,7.49-1.3h.06l.81-4.25c-2.94.38-6,.87-9,1.46-1,.18-1.95.38-3,.6l-.17,0-2.72.6-.16,0c-1.81.42-3.62.86-5.37,1.33-3.35.88-6.73,1.89-10.33,3.1l0,0c.14.73.29,1.54.46,2.28l.13.57c.11.5.23,1,.35,1.51,3.16-1.14,6.67-2.25,10.16-3.24Z" transform="translate(-6.38 -10.51)"/><path class="cls-2" d="M34.19,80.66l-.33.07c-2.74.62-5.5,1.31-8.2,2.08-3.49,1-6.88,2.07-10.09,3.22h0q.45,1.83,1,3.65l.11-.06a134.4,134.4,0,0,1,26.57-6.68h0L44,78.83c-2.34.35-4.76.77-7.2,1.27Z" transform="translate(-6.38 -10.51)"/><path class="cls-2" d="M23.36,70.21,15.22,25.44l-.06,0a150.67,150.67,0,0,0-2,47.81c3.24-1.1,6.66-2.13,10.16-3.06Z" transform="translate(-6.38 -10.51)"/><path class="cls-2" d="M63.5,65,60.78,51.39,58.08,65c.87,0,1.77,0,2.66,0S62.57,65,63.5,65Z" transform="translate(-6.38 -10.51)"/><path class="cls-2" d="M64.7,70.66c-.13-.62-.75-3.57-.9-4.2h0c-.94,0-1.94,0-3,0s-2,0-3,0h0c-.14.63-.76,3.58-.89,4.2,1.41,0,2.69-.07,3.91-.07S63.28,70.61,64.7,70.66Z" transform="translate(-6.38 -10.51)"/><polygon class="cls-2" points="50.49 60.26 50.49 60.27 50.49 60.27 50.49 60.26"/><path class="cls-2" d="M60.8,76.1c1.49,0,3.08,0,5,.13L65,72.11H64.9C63.33,72,62,72,60.8,72s-2.55,0-4.12.09H56.6l-.82,4.13h0C57.74,76.14,59.33,76.1,60.8,76.1Z" transform="translate(-6.38 -10.51)"/><path class="cls-2" d="M66.9,81.82l-.82-4.14H66c-2-.1-3.66-.15-5.22-.15s-3.25,0-5.27.15h0l-.82,4.13c2.21-.12,4.19-.17,6.05-.17S64.69,81.71,66.9,81.82Z" transform="translate(-6.38 -10.51)"/><path class="cls-2" d="M67.15,83.27c-2.26-.13-4.34-.19-6.35-.19s-4.08.06-6.35.19h0L44.83,131a75.8,75.8,0,0,0,16,8.47,75.74,75.74,0,0,0,16-8.49L67.18,83.27Zm-9.78,43c-1.71,0-6-1.66-6.32-8.32-.25-4.87,1.17-6.16,1.17-6.16l2.62,4.78c0,6.86,4.95,7,4.95,7A2.4,2.4,0,0,1,57.37,126.3Zm4,1.94H60.11v-7.09c-.65-.28-2.1-1-2.06-3.67a23.48,23.48,0,0,0-.79-6.78c-.42-1.5-3-3.08-3-3.08,2.58-2.87,4.84,1,4.74.54a7.18,7.18,0,0,1,.62-3.24,9.81,9.81,0,0,1,1.1-1.77,9.78,9.78,0,0,1,1.11,1.77,7.16,7.16,0,0,1,.62,3.24c-.1.48,2.16-3.41,4.74-.54,0,0-2.54,1.58-3,3.08a23.58,23.58,0,0,0-.79,6.78c0,2.85-1.62,3.47-2.18,3.72ZM70.49,118c-.34,6.66-4.62,8.32-6.33,8.32a2.39,2.39,0,0,1-2.41-2.69s4.95-.14,4.95-7l2.62-4.78S70.74,113.12,70.49,118Z" transform="translate(-6.38 -10.51)"/><path class="cls-2" d="M97,77.16c-1.77-.47-3.57-.91-5.34-1.33l-.23-.05-2.47-.55-.5-.11-2.84-.57c-3.07-.59-6.13-1.08-9.09-1.46h-.07l.82,4.25.15,0c2.39.35,4.79.76,7.33,1.27l.15,0c3.77.76,7.6,1.69,11.39,2.76,3.39,1,6.74,2,9.94,3.17l.18.07q.51-2.21.93-4.41l-.17-.05C103.9,79.11,100.47,78.09,97,77.16Z" transform="translate(-6.38 -10.51)"/><path class="cls-2" d="M96,82.84h0l0,0-2.59-.71h-.05l-2.73-.7c-2-.48-3.95-.92-5.93-1.33-2.39-.48-4.76-.9-7.05-1.24h-.06L78.45,83h0c1.65.24,3.37.54,5.37.92H84l.88.18.76.15.49.1c.91.19,1.85.4,2.88.63l.77.18c1.06.25,2,.48,2.84.7l.31.08,2,.55.49.14c3.3.93,6.47,2,9.44,3.05l.21.08q.53-1.84,1-3.69l-.22-.08C102.67,84.84,99.36,83.79,96,82.84Z" transform="translate(-6.38 -10.51)"/><path class="cls-2" d="M78.75,84.47l2.75,14.42,2.26-13.55h0C82,85,80.38,84.72,78.75,84.47Z" transform="translate(-6.38 -10.51)"/><path class="cls-2" d="M95.07,88,89.3,119.76a77.93,77.93,0,0,0,15.37-28.63h0C101.62,90,98.39,89,95.07,88Z" transform="translate(-6.38 -10.51)"/><path class="cls-2" d="M108.43,73.34a150.56,150.56,0,0,0-2-47.87l0,0L98.3,70.27h0C101.79,71.21,105.19,72.24,108.43,73.34Z" transform="translate(-6.38 -10.51)"/><path class="cls-2" d="M86.76,67.61,94.6,21.38a198.93,198.93,0,0,0-28.82-4.14l9.37,48.58h0C78.94,66.25,82.84,66.86,86.76,67.61ZM74.24,37.06l1.69-1-4.17-2.4.69-.24-1.65-3,3.41-.06-.14-.72,4.25,2.45v-4.9l.55.48,1.68-2.92,1.68,2.92.55-.48v4.9L87,29.67l-.14.72,3.41.06-1.65,3,.69.24-4.17,2.4,1.69,1-.69.24,1.65,3-3.41.07.14.72-3.22-1.86v6.31H79.77V39.21l-3.22,1.86.14-.72-3.41-.07,1.65-3Z" transform="translate(-6.38 -10.51)"/><path class="cls-2" d="M98,71.67,95.5,71,95.24,71c-2.88-.72-5.8-1.37-8.69-1.93C82.76,68.3,79,67.72,75.42,67.3c.09.64.63,3.66.74,4.3h0c3.08.39,6.26.89,9.48,1.5l.15,0c.89.17,1.82.36,2.82.57l.52.11,2.6.58.08,0,2.61.62.7.18,1.91.49.08,0,.16,0,.09,0c3.49.93,6.88,1.94,10.08,3l.12,0c.24-1.36.45-2.71.63-4l-.13,0C104.87,73.64,101.46,72.61,98,71.67Z" transform="translate(-6.38 -10.51)"/><polygon class="cls-3" points="9.14 75.4 9.14 75.4 9.14 75.4 9.14 75.4"/><path class="cls-3" d="M63.49,65c-.93,0-1.83,0-2.76,0s-1.79,0-2.66,0c0,0-.3,1.44-.3,1.44h0c.95,0,2,0,3,0s2,0,3,0h0S63.5,65,63.49,65Z" transform="translate(-6.38 -10.51)"/><path class="cls-3" d="M46.46,65.8c-3.75.42-7.64,1-11.57,1.77h0c-3.85.74-7.73,1.63-11.54,2.64h0c-3.5.93-6.92,2-10.16,3.06,0,0,0,.08,0,.13.05.39.1.78.15,1.17h0l0,.12h.06c3.22-1.09,6.65-2.13,10.2-3.07,3.78-1,7.63-1.89,11.46-2.62s7.54-1.3,11.15-1.72l.29-1.48Z" transform="translate(-6.38 -10.51)"/><path class="cls-3" d="M13.21,73.4h0l.16,1.16h0C13.3,74.18,13.26,73.79,13.21,73.4Z" transform="translate(-6.38 -10.51)"/><path class="cls-3" d="M98.3,70.27h0c-3.81-1-7.69-1.92-11.53-2.66h0c-3.92-.76-7.82-1.36-11.57-1.78h0l0,.13s.23,1.22.23,1.22a.53.53,0,0,0,0,.13c3.59.42,7.34,1,11.12,1.74,2.89.56,5.81,1.21,8.69,1.93l.26.07,2.47.64c3.49.94,6.9,2,10.13,3.06l.13,0c0-.19.07-.39.09-.58s.06-.49.09-.73v-.12C105.19,72.24,101.79,71.21,98.3,70.27Z" transform="translate(-6.38 -10.51)"/><path class="cls-3" d="M43.21,82.94a134.4,134.4,0,0,0-26.57,6.68l-.11.06.42,1.41h0c2-.76,5.38-1.92,9.64-3.12h0c3.69-1,7.5-1.93,11.31-2.65h0c1.76-.33,3.41-.61,5-.86l.33-1.51Z" transform="translate(-6.38 -10.51)"/><path class="cls-3" d="M104.88,89.67c-3-1.09-6.15-2.12-9.44-3.05l-.49-.14-2-.55-.31-.08c-.85-.22-1.78-.45-2.84-.7L89,85c-1-.24-2-.44-2.88-.63l-.49-.1-.76-.15L84,83.92h-.12c-2-.38-3.72-.68-5.37-.92h0l0,.13.24,1.24,0,.13c1.63.25,3.27.53,5,.86h0c3.8.73,7.61,1.63,11.3,2.67h0c3.32.94,6.55,2,9.6,3.12h0l0-.12c.12-.38.23-.76.34-1.15l0-.12Z" transform="translate(-6.38 -10.51)"/><path class="cls-3" d="M104.72,91l.34-1.15h0c-.11.38-.23.77-.34,1.15Z" transform="translate(-6.38 -10.51)"/><path class="cls-3" d="M66.9,81.82c-2.21-.12-4.23-.17-6.16-.17s-3.84.06-6.05.17l-.27,1.45h0c2.27-.13,4.35-.19,6.35-.19s4.09.06,6.35.19h0Z" transform="translate(-6.38 -10.51)"/><polygon class="cls-3" points="60.54 71.44 60.76 72.55 60.55 71.44 60.54 71.44"/><path class="cls-3" d="M64.7,70.66c-1.42,0-2.69-.07-3.9-.07s-2.5,0-3.91.07l-.29,1.45h.08c1.57-.06,2.88-.09,4.12-.09s2.53,0,4.1.08H65Z" transform="translate(-6.38 -10.51)"/><path class="cls-3" d="M45.36,71.59c-3,.38-6.2.88-9.4,1.49h0l-.13,0L33,73.65l-.57.12-.11,0-2.24.49-.45.1c-1.72.39-3.47.82-5.21,1.28l-.12,0c-3.52.93-7.1,2-10.33,3.07l0,.13h0l.21,1.21h0l0,.15,0,0c3.6-1.2,7-2.22,10.33-3.1,1.75-.46,3.56-.91,5.37-1.33l.16,0,2.72-.6.17,0c1-.22,2-.42,3-.6,3.06-.58,6.1-1.08,9-1.46l0-.13h0l.24-1.24h0l0-.13Z" transform="translate(-6.38 -10.51)"/><polygon class="cls-3" points="39 61.21 39 61.21 38.76 62.45 38.76 62.45 39 61.21 39 61.21"/><path class="cls-3" d="M14,78.9c.07.39.13.77.22,1.2h0L14,78.89Z" transform="translate(-6.38 -10.51)"/><polygon class="cls-3" points="7.88 69.59 7.88 69.59 7.88 69.59 7.88 69.59"/><path class="cls-3" d="M107.47,78.79c-3.2-1.07-6.59-2.08-10.08-3l-.09,0-.16,0-.08,0-1.91-.49-.7-.18-2.61-.62-.08,0-2.6-.58-.52-.11c-1-.21-1.93-.4-2.82-.57l-.15,0c-3.21-.61-6.4-1.12-9.48-1.5h0l0,.13L76.42,73l0,.13h.07c3,.38,6,.88,9.09,1.46l2.84.57.5.11,2.47.55.23.05c1.77.41,3.57.86,5.34,1.33,3.49.93,6.92,1.95,10.19,3l.17.05,0-.12c.07-.39.14-.78.21-1.18l0-.12Z" transform="translate(-6.38 -10.51)"/><path class="cls-3" d="M107.38,80.13l.2-1.18c-.07.39-.14.79-.21,1.18Z" transform="translate(-6.38 -10.51)"/><path class="cls-3" d="M65.8,76.24c-1.92-.09-3.51-.13-5-.13s-3.06,0-5,.13h0l0,.13-.24,1.2,0,.13h0c2-.1,3.69-.15,5.27-.15s3.22,0,5.22.15h.06Z" transform="translate(-6.38 -10.51)"/><path class="cls-3" d="M44.25,77.34c-2.41.35-4.93.78-7.49,1.3-.94.19-1.89.39-2.92.62l-.17,0c-.91.2-1.83.42-2.75.64l-.18,0-2.65.67-.12,0-2.58.7c-3.48,1-7,2.1-10.16,3.24.09.4.18.81.28,1.21l0,.08,0,.12h0c3.21-1.16,6.61-2.24,10.09-3.22,2.7-.76,5.46-1.46,8.2-2.08l.33-.07,2.64-.56c2.45-.5,4.87-.92,7.2-1.27,0,0,.28-1.49.28-1.49Z" transform="translate(-6.38 -10.51)"/><polygon class="cls-3" points="9.14 75.4 9.14 75.4 9.14 75.4 9.14 75.4"/><path class="cls-3" d="M15.5,85.83l0,.08h0Z" transform="translate(-6.38 -10.51)"/><path class="cls-3" d="M106.22,84.6c-3.2-1.14-6.55-2.21-9.94-3.17-3.79-1.07-7.62-2-11.39-2.76l-.15,0c-2.54-.51-4.94-.93-7.33-1.27l-.15,0,0,.13.24,1.23,0,.13h.06c2.29.34,4.66.76,7.05,1.24,2,.4,4,.85,5.93,1.33l2.73.7h.05l2.59.71,0,0h0c3.34.95,6.65,2,9.84,3.15l.22.08,0-.12c.09-.38.18-.77.27-1.15l0-.12Z" transform="translate(-6.38 -10.51)"/><path class="cls-3" d="M48.18,38s1.67-1.57,1.67-3.09c0-3.45-1.85-3.21-2.66-3.21-1.85,0-4.37,2.88-4.37,2.88.28-.63.76-1.75.9-2.1.06-.14.13-.32.21-.51A4.5,4.5,0,0,0,44,28.81c-.43-1.33-1.35-1.9-2.1-2.83s-1.11-1.31-1.11-1.31S40.5,25,39.69,26s-1.67,1.5-2.1,2.83A4.51,4.51,0,0,0,37.68,32c.07.2.15.37.21.51.14.35.62,1.47.9,2.1,0,0-2.52-2.88-4.37-2.88-.8,0-2.66-.23-2.66,3.21,0,1.52,1.67,3.09,1.67,3.09s.24-1.24,2.06-1.24c1.25,0,2.1,1.31,2.1,2.79,0,1.21-.25,2.23-.55,2.36a20.07,20.07,0,0,1,1.7,1.29c.38.38,2.06,2.41,2.06,2.41s1.68-2,2.06-2.41a20.59,20.59,0,0,1,1.71-1.29c-.3-.13-.55-1.14-.55-2.36,0-1.47.85-2.79,2.1-2.79C47.93,36.78,48.18,38,48.18,38Z" transform="translate(-6.38 -10.51)"/><path class="cls-3" d="M61.76,123.61a2.39,2.39,0,0,0,2.41,2.69c1.71,0,6-1.66,6.33-8.32.25-4.87-1.17-6.16-1.17-6.16l-2.62,4.78C66.71,123.47,61.76,123.61,61.76,123.61Z" transform="translate(-6.38 -10.51)"/><path class="cls-3" d="M54.83,116.61l-2.62-4.78S50.8,113.12,51,118c.34,6.66,4.62,8.32,6.32,8.32a2.4,2.4,0,0,0,2.41-2.69S54.83,123.47,54.83,116.61Z" transform="translate(-6.38 -10.51)"/><path class="cls-3" d="M63.5,117.48a23.58,23.58,0,0,1,.79-6.78c.42-1.5,3-3.08,3-3.08-2.58-2.87-4.84,1-4.74.54a7.16,7.16,0,0,0-.62-3.24,9.78,9.78,0,0,0-1.11-1.77,9.81,9.81,0,0,0-1.1,1.77,7.18,7.18,0,0,0-.62,3.24c.09.48-2.16-3.41-4.74-.54,0,0,2.54,1.58,3,3.08a23.48,23.48,0,0,1,.79,6.78c0,2.67,1.41,3.38,2.06,3.67v7.09h1.21v-7C61.89,121,63.54,120.34,63.5,117.48Z" transform="translate(-6.38 -10.51)"/><polygon class="cls-3" points="70.32 29.84 70.18 30.56 73.4 28.7 73.4 35.01 74.13 35.01 74.22 35.01 74.96 35.01 74.96 28.7 78.18 30.56 78.03 29.84 81.45 29.77 79.8 26.79 80.49 26.55 78.8 25.58 82.97 23.17 82.28 22.94 83.93 19.95 80.52 19.88 80.66 19.16 76.41 21.61 76.41 16.71 75.86 17.19 74.18 14.27 72.5 17.19 71.94 16.71 71.94 21.61 67.7 19.16 67.84 19.88 64.43 19.95 66.07 22.94 65.38 23.17 69.55 25.58 67.86 26.55 68.56 26.79 66.91 29.77 70.32 29.84"/><path class="cls-4" d="M166,63.65c0,5.57-3.47,9.16-8.84,9.16s-8.78-3.6-8.78-9.16V37.73h-5.1V64c0,7.83,5.84,13.51,13.88,13.51S171.07,71.8,171.07,64V37.73H166Z" transform="translate(-6.38 -10.51)"/><path class="cls-4" d="M183.72,60.3c0-4.18,2.22-6.57,6.08-6.57s6,2.33,6,6.57V77.15h4.89V59.65a10.35,10.35,0,0,0-2.9-7.75,9.84,9.84,0,0,0-7.15-2.63,10.19,10.19,0,0,0-6.95,2.52V49.6h-4.89V77.15h4.89Z" transform="translate(-6.38 -10.51)"/><rect class="cls-4" x="201.54" y="27.16" width="5.37" height="5.37"/><rect class="cls-4" x="201.76" y="39.09" width="4.89" height="27.55"/><polygon class="cls-4" points="225.25 66.64 235.39 39.09 230.11 39.09 223.18 59.35 216.31 39.09 211.02 39.09 221.1 66.64 225.25 66.64"/><path class="cls-4" d="M255.23,49.28c-7.14,0-11.4,5.27-11.4,14.1,0,9.09,4.3,14.1,12.1,14.1A12.69,12.69,0,0,0,266,73.23l.38-.38-3.4-3-.33.33A8.19,8.19,0,0,1,256,73.08c-4.58,0-7.17-2.9-7.32-8.17h17.91V62.62C266.63,54.39,262.26,49.28,255.23,49.28ZM248.74,61a9.65,9.65,0,0,1,.74-3.73,6.32,6.32,0,0,1,11.49,0,9.66,9.66,0,0,1,.75,3.74Z" transform="translate(-6.38 -10.51)"/><path class="cls-4" d="M284.79,49.28a9.84,9.84,0,0,0-6.95,2.66V49.6H273V77.15h4.89V60.35c0-3.9,2.41-6.62,5.87-6.62a5.05,5.05,0,0,1,4.23,1.8l.36.36,3.56-3.63-.35-.35A8.7,8.7,0,0,0,284.79,49.28Z" transform="translate(-6.38 -10.51)"/><path class="cls-4" d="M315.19,68.88c0-6.19-4.73-7.35-8.28-7.68l-4.27-.38c-3.69-.3-4.18-1.88-4.18-3.39,0-2.5,1.93-3.87,5.44-3.87a10.82,10.82,0,0,1,6.77,2l.35.27,3.24-3.24-.43-.35c-2.38-1.95-5.79-3-9.87-3-6.14,0-10.27,3.32-10.27,8.27,0,4.59,2.82,7.16,8.39,7.62l4.37.38c3.52.31,4,2,4,3.39,0,3.65-4.12,4.2-6.57,4.2-3.44,0-6-1-7.9-2.92l-.35-.37-3.31,3.31.37.35c2.85,2.75,6.32,4,11.25,4C310.76,77.48,315.19,74.1,315.19,68.88Z" transform="translate(-6.38 -10.51)"/><rect class="cls-4" x="313.86" y="27.16" width="5.37" height="5.37"/><rect class="cls-4" x="314.08" y="39.09" width="4.89" height="27.55"/><path class="cls-4" d="M334,69.53c0,4.63,2.87,7.62,7.3,7.62h3.25V72.81H342c-2.1,0-3.12-1.11-3.12-3.39V53.73h5.67v-4h-5.67V41.45H334v8.31h-3.35v4H334Z" transform="translate(-6.38 -10.51)"/><path class="cls-4" d="M360,83.25,372.3,49.6H367l-6.88,20.27L353.22,49.6h-5.28l9.74,26.51-1.83,5c-.8,2.26-1.44,3-3.9,3h-1.69v4.45h2.17a7.77,7.77,0,0,0,5.52-2A8.29,8.29,0,0,0,360,83.25Z" transform="translate(-6.38 -10.51)"/><path class="cls-4" d="M150.56,107.92a7.5,7.5,0,0,0-5.43,2.17c-2,2.07-2.3,4.9-2.3,7.41s.27,5.33,2.31,7.41a7.9,7.9,0,0,0,10.86,0c2-2.07,2.3-4.9,2.3-7.4s-.27-5.34-2.31-7.41A7.5,7.5,0,0,0,150.56,107.92Zm2.89,14.69a4,4,0,0,1-2.89,1.15,3.94,3.94,0,0,1-2.85-1.15c-1.14-1.14-1.29-3.13-1.29-5.12s.16-4,1.29-5.12a3.94,3.94,0,0,1,2.85-1.15,4,4,0,0,1,2.89,1.15c1.16,1.16,1.26,3.25,1.26,5.12S154.6,121.45,153.44,122.61Z" transform="translate(-6.38 -10.51)"/><path class="cls-4" d="M162.87,105.4v2.85h-2.27v3h2.27v15.62h3.59V111.22h3.78v-3h-3.78v-2.78c0-1.45.58-2.09,1.88-2.09h1.9v-3.23h-2.37C164.84,100.14,162.87,102.21,162.87,105.4Z" transform="translate(-6.38 -10.51)"/><polygon class="cls-4" points="204.37 106.38 196.31 76.91 191.88 76.91 183.82 106.38 176.68 76.91 171.27 76.91 181.35 116.33 185.95 116.33 194.09 86.94 202.24 116.33 206.84 116.33 216.92 76.91 211.51 76.91 204.37 106.38"/><rect class="cls-4" x="220.96" y="88.78" width="4.89" height="27.55"/><rect class="cls-4" x="220.74" y="76.85" width="5.37" height="5.37"/><path class="cls-4" d="M252.28,99a10.19,10.19,0,0,0-6.95,2.52v-2.2h-4.89v27.55h4.89V110c0-4.18,2.22-6.57,6.08-6.57s6,2.33,6,6.57v16.85h4.89v-17.5a10.35,10.35,0,0,0-2.9-7.75A9.84,9.84,0,0,0,252.28,99Z" transform="translate(-6.38 -10.51)"/><path class="cls-4" d="M286.05,101.55a9.07,9.07,0,0,0-7-2.58,9.78,9.78,0,0,0-6.83,2.47c-3,3-3.38,8.09-3.38,11.63s.35,8.6,3.38,11.63a9.79,9.79,0,0,0,6.83,2.47,9.15,9.15,0,0,0,7.06-2.67v2.35h4.83V87.42h-4.89Zm-6.14,21.17c-5.46,0-6.19-4.88-6.19-9.65s.74-9.65,6.19-9.65,6.14,4.64,6.14,9.65S285.31,122.72,279.91,122.72Z" transform="translate(-6.38 -10.51)"/><path class="cls-4" d="M311,110.9l-4.27-.38c-3.69-.3-4.18-1.88-4.18-3.39,0-2.5,1.93-3.87,5.44-3.87a10.82,10.82,0,0,1,6.77,2l.35.27,3.24-3.24-.43-.35c-2.38-1.95-5.79-3-9.87-3-6.14,0-10.27,3.32-10.27,8.27,0,4.59,2.82,7.16,8.39,7.62l4.37.38c3.52.31,4,2,4,3.39,0,3.65-4.12,4.2-6.57,4.2-3.44,0-6-1-7.9-2.92l-.35-.37-3.31,3.31.37.35c2.85,2.75,6.32,4,11.25,4,6.86,0,11.29-3.37,11.29-8.6C319.27,112.38,314.55,111.23,311,110.9Z" transform="translate(-6.38 -10.51)"/><path class="cls-4" d="M335.29,99a11,11,0,0,0-8,3.17c-3,3-3.38,7.23-3.38,10.93s.4,7.89,3.38,10.93a11.59,11.59,0,0,0,15.93,0c3-3,3.38-7.23,3.38-10.93s-.4-7.89-3.38-10.93A11,11,0,0,0,335.29,99Zm4.5,22a6.3,6.3,0,0,1-4.5,1.8,6.15,6.15,0,0,1-4.45-1.8c-1.77-1.77-2-4.82-2-7.85s.24-6.08,2-7.85a6.15,6.15,0,0,1,4.45-1.8,6.3,6.3,0,0,1,4.5,1.8c1.81,1.81,2,5,2,7.85S341.6,119.11,339.79,120.92Z" transform="translate(-6.38 -10.51)"/><path class="cls-4" d="M372,101.6A8.7,8.7,0,0,0,365.24,99a9.84,9.84,0,0,0-6.95,2.66V99.29h-4.89v27.55h4.89V110c0-3.9,2.41-6.62,5.87-6.62a5.05,5.05,0,0,1,4.23,1.8l.36.36,3.56-3.63Z" transform="translate(-6.38 -10.51)"/></svg>